<svg width="36" height="36" viewBox="0 0 36 36" fill="none" xmlns="http://www.w3.org/2000/svg">
<rect width="36" height="36" rx="4" fill="#B92E2E"/>
<path d="M7.32597 23.1429C7.63766 23.1429 7.94935 23.1818 8.26104 23.2597C8.57273 23.3377 8.72857 23.6493 8.72857 24.1948V32.5519C8.72857 32.7857 8.78701 32.9416 8.9039 33.0195C9.05974 33.0974 9.23506 33.1364 9.42987 33.1364C9.62468 33.1364 9.81948 33.1169 10.0143 33.0779V33.0779C10.2698 33.0268 10.4818 32.8082 10.4818 32.5476V20.7468C10.4818 20.4351 10.6377 20.1039 10.9493 19.7532C11.3 19.4026 11.6312 19.2273 11.9429 19.2273C12.1377 19.2273 12.3909 19.3052 12.7026 19.461C13.0143 19.5779 13.1701 19.6753 13.1701 19.7532V26.5032C13.1701 26.8421 13.4449 27.1169 13.7838 27.1169V27.1169C14.1227 27.1169 14.4075 26.8425 14.4318 26.5044C14.4387 26.4075 14.4468 26.3 14.4558 26.1818C14.4948 25.6364 14.5727 25.0714 14.6896 24.487C14.8065 23.9026 14.9818 23.3766 15.2156 22.9091C15.4883 22.4416 15.8584 22.2078 16.326 22.2078C16.8325 22.2078 17.2026 22.3831 17.4364 22.7338C17.6701 23.0455 17.8065 23.4351 17.8455 23.9026C17.9234 24.3312 17.9429 24.7597 17.9039 25.1883C17.9039 25.6169 17.9039 25.9481 17.9039 26.1818C17.9039 27.3117 17.8455 28.1688 17.7286 28.7532C17.6117 29.2987 17.4558 29.6688 17.261 29.8636C17.0662 30.0584 16.8325 30.1364 16.5597 30.0974C16.326 30.0584 16.0532 30.0195 15.7416 29.9805C15.4299 29.9026 15.1182 29.9026 14.8065 29.9805C14.4948 30.0195 14.2026 30.2338 13.9299 30.6234C13.893 30.6787 13.8735 30.7516 13.8716 30.8419C13.8663 31.0892 13.987 31.3184 14.0911 31.5427C14.1543 31.6786 14.2174 31.8202 14.2805 31.9675C14.4364 32.2403 14.5727 32.513 14.6896 32.7857V32.7857C14.8275 33.0616 15.115 33.3117 15.4234 33.3117H17.9039C18.2935 33.3117 18.5468 33.526 18.6636 33.9545C18.8195 34.3442 18.8974 34.6948 18.8974 35.0065C18.8974 35.1623 18.8779 35.3766 18.839 35.6493C18.8 35.8831 18.6442 36 18.3714 36H8.02727C7.91039 36 7.73506 35.9416 7.5013 35.8247C7.30649 35.7078 7.09221 35.5714 6.85844 35.4156C6.77932 35.3523 6.7002 35.289 6.62108 35.2257C6.39042 35.0412 6.18718 34.8224 6.11198 34.5368C6.09214 34.4614 6.07443 34.3849 6.05926 34.314C6.0147 34.106 6.00042 33.8931 6.00125 33.6803L6.04026 23.6688C6.04026 23.3571 6.21558 23.2013 6.56623 23.2013C6.95584 23.1623 7.20909 23.1429 7.32597 23.1429ZM19.8325 29.2208C19.8325 28.5584 19.8325 27.9545 19.8325 27.4091C19.8325 26.8636 19.8519 26.3377 19.8909 25.8312C19.9299 25.2857 19.9883 24.7403 20.0662 24.1948C20.1442 23.6104 20.2416 22.948 20.3584 22.2078C20.3965 22.0555 20.4532 21.9404 20.5285 21.8625C20.6816 21.7041 20.9348 21.7175 21.1542 21.6972C21.2642 21.6869 21.369 21.6818 21.4688 21.6818C21.9753 21.6818 22.5597 21.7013 23.2221 21.7403C23.9234 21.7792 24.6052 21.8377 25.2675 21.9156C25.9299 21.9545 26.5338 22.013 27.0792 22.0909V22.0909C27.7614 22.1396 28.368 21.71 28.7798 21.1639C28.7974 21.1406 28.8149 21.1185 28.8325 21.0974C29.0273 20.8247 29.3974 20.6883 29.9429 20.6883C30.0987 20.6883 30.3325 20.7078 30.6441 20.7468C30.9948 20.7468 31.1701 20.9026 31.1701 21.2143V32.5519C31.1701 33.0974 30.9948 33.5455 30.6441 33.8961C30.2935 34.2078 29.8649 34.461 29.3584 34.6558C28.8909 34.8117 28.3844 34.9286 27.839 35.0065C27.3325 35.0455 26.9039 35.0649 26.5532 35.0649C25.3844 35.0649 24.3714 34.987 23.5143 34.8312C22.6961 34.6753 22.0143 34.3831 21.4688 33.9545C20.9234 33.487 20.5143 32.8831 20.2416 32.1429C19.9688 31.3636 19.8325 30.3896 19.8325 29.2208ZM25.7643 31.5584C27.136 31.5584 28.248 30.4464 28.248 29.0747V27.6721C28.248 26.3003 27.136 25.1883 25.7643 25.1883V25.1883C24.3925 25.1883 23.2805 26.3003 23.2805 27.6721V29.0747C23.2805 30.4464 24.3925 31.5584 25.7643 31.5584V31.5584ZM12.9093 17.964C12.4294 17.3264 11.4861 17.3511 10.9493 17.9416V17.9416C10.5597 18.3312 10.1312 18.7013 9.66364 19.0519C9.23507 19.4026 8.76753 19.6948 8.26104 19.9286C7.75454 20.1623 7.26753 20.2792 6.8 20.2792C6.7519 20.2792 6.70008 20.2774 6.64455 20.2737C6.35778 20.2545 6.07756 20.1733 5.82403 20.0379C5.75974 20.0036 5.69545 19.9671 5.63117 19.9286C5.43636 19.7727 5.26104 19.5974 5.1052 19.4026C4.98831 19.2078 4.96883 18.9935 5.04675 18.7597C5.2026 18.1364 5.57273 17.6493 6.15714 17.2987C6.78052 16.9091 7.4039 16.5 8.02727 16.0714C8.68961 15.6039 9.27402 15 9.78052 14.2597C10.287 13.5195 10.5403 12.4675 10.5403 11.1039C10.5403 10.987 10.5208 10.7143 10.4818 10.2857V10.2857C10.4818 9.77985 10.1138 9.35515 9.62492 9.22531C8.58864 8.95011 7.68596 8.50487 6.91688 7.88961C5.98182 7.11039 5.51429 5.96104 5.51429 4.44156C5.51429 3.77922 5.55325 3.29221 5.63117 2.98052C5.70909 2.62987 6.0987 2.45454 6.8 2.45454C7.5013 2.45454 7.91039 2.62987 8.02727 2.98052C8.14416 3.29221 8.22208 3.66234 8.26104 4.09091C8.33896 4.48052 8.51428 4.85065 8.78701 5.2013V5.2013C9.52632 6.04623 10.7156 4.75869 10.7156 3.63597V0.525974C10.7156 0.253248 10.9493 0.0974036 11.4169 0.0584408C11.8844 0.0194803 12.1766 0 12.2935 0C12.4413 0 12.5723 0.0056072 12.6865 0.0168216C12.9769 0.0453548 13.2639 0.186792 13.3516 0.465164C13.3946 0.601665 13.4315 0.77778 13.4623 0.993508C13.5013 1.18831 13.5403 1.51948 13.5792 1.98702C13.6182 2.45455 13.6571 2.96104 13.6961 3.50649C13.774 4.01299 13.8325 4.5 13.8714 4.96753V4.96753C13.9204 5.55471 14.327 6.06068 14.8621 6.30722C15.6035 6.6488 16.3058 7.1373 16.9688 7.77273C17.9039 8.62987 18.3714 9.66234 18.3714 10.8701C18.3714 11.3377 18.2935 11.7078 18.1377 11.9805C17.9818 12.2532 17.6701 12.3896 17.2026 12.3896C16.774 12.3896 16.4234 12.2922 16.1506 12.0974C15.8779 11.8636 15.6247 11.5909 15.3909 11.2792C15.1571 10.9286 14.9234 10.5974 14.6896 10.2857C14.6613 10.2348 14.6318 10.1851 14.6011 10.1367C14.3813 9.7904 13.9029 9.99369 13.8714 10.4026V10.4026C13.8714 10.8701 13.8714 11.1818 13.8714 11.3377C13.8714 12.3506 14.1052 13.3052 14.5727 14.2013C15.0403 15.0584 15.5468 15.8377 16.0922 16.539C16.6766 17.2403 17.2026 17.8442 17.6701 18.3506C18.1377 18.8571 18.3714 19.2273 18.3714 19.461C18.3714 20.3571 17.9818 20.8052 17.2026 20.8052C16.6182 20.8052 16.0727 20.6688 15.5662 20.3961C15.0987 20.0844 14.6312 19.7338 14.1636 19.3442C13.7351 18.9156 13.326 18.4675 12.9364 18C12.9273 17.9879 12.9183 17.9759 12.9093 17.964ZM25.7351 18.7013C25.7351 18.6234 25.7351 18.5455 25.7351 18.4675V18.4675C25.7351 18.3413 25.84 18.2358 25.9202 18.1384L27.3358 16.4195C27.9256 15.7033 28.248 14.8044 28.248 13.8766V9.87663C28.248 9.29221 28.0143 8.9026 27.5468 8.70779C27.1182 8.47402 26.6896 8.35714 26.261 8.35714C26.1863 8.35714 26.0219 8.37507 25.7679 8.41091C25.7461 8.414 25.7086 8.41558 25.6865 8.41558V8.41558C25.4418 8.41558 25.2541 8.60452 25.2307 8.84816C25.1799 9.37787 25.0948 10.0908 24.9753 10.987C24.8195 12.1169 24.5467 13.2662 24.1571 14.4351C23.7675 15.6039 23.261 16.6364 22.6377 17.5325C22.0532 18.3896 21.313 18.8182 20.4169 18.8182C19.9493 18.8182 19.5597 18.7403 19.2481 18.5844C18.9364 18.3896 18.7805 18.039 18.7805 17.5325C18.7805 17.4662 18.7805 17.3717 18.7805 17.249C18.7805 17.2043 18.7898 17.1355 18.7979 17.0916V17.0916C18.8377 16.8776 18.944 16.6977 19.1186 16.5677C19.6869 16.1445 20.1391 15.7648 20.4753 15.4286C20.8649 15 21.1571 14.5714 21.3519 14.1429C21.5857 13.6753 21.7221 13.1688 21.761 12.6234C21.839 12.0779 21.8779 11.4156 21.8779 10.6364C21.8779 10.4416 21.8584 10.0714 21.8195 9.52598V9.52598C21.8195 8.88297 21.3558 8.32897 20.765 8.07529C20.5989 8.00397 20.4244 7.9226 20.2416 7.83117C19.6571 7.51948 19.3649 7.05195 19.3649 6.42857C19.3649 6.07792 19.4039 5.57143 19.4818 4.90909C19.5597 4.20779 19.6961 3.54545 19.8909 2.92208C20.0857 2.25974 20.3584 1.69481 20.7091 1.22727C21.0597 0.72078 21.5273 0.467533 22.1117 0.467533C22.5792 0.467533 22.8909 0.642858 23.0468 0.993508C23.2416 1.3052 23.3584 1.67533 23.3974 2.1039C23.4364 2.53247 23.4364 2.98052 23.3974 3.44805V3.44805C23.3469 4.0035 23.716 4.52158 24.2672 4.60681C24.2886 4.61013 24.3104 4.61349 24.3325 4.61688C24.8779 4.69481 25.4234 4.79221 25.9688 4.90909C26.5532 5.02597 27.0987 5.14286 27.6052 5.25974C28.1506 5.33766 28.5208 5.3961 28.7156 5.43506C29.1052 5.51299 29.5338 5.76623 30.0013 6.1948C30.4688 6.58441 30.7026 6.99351 30.7026 7.42208V16.3052C30.7026 16.7727 30.5857 17.2208 30.3519 17.6493C30.1182 18.039 29.826 18.4091 29.4753 18.7597C29.1247 19.0714 28.7156 19.3247 28.248 19.5195C27.8195 19.7143 27.3909 19.8117 26.9623 19.8117C26.5727 19.8117 26.261 19.7338 26.0273 19.5779C25.8325 19.4221 25.7351 19.1299 25.7351 18.7013Z" fill="white"/>
</svg>
