<svg width="37" height="36" viewBox="0 0 37 36" fill="none" xmlns="http://www.w3.org/2000/svg">
<path d="M7.82597 23.1429C8.13766 23.1429 8.44935 23.1818 8.76104 23.2597C9.07273 23.3377 9.22857 23.6493 9.22857 24.1948V32.5519C9.22857 32.7857 9.28701 32.9416 9.4039 33.0195C9.55974 33.0974 9.73506 33.1364 9.92987 33.1364C10.1247 33.1364 10.3195 33.1169 10.5143 33.0779C10.7698 33.0268 10.9818 32.8082 10.9818 32.5476V20.7468C10.9818 20.4351 11.1377 20.1039 11.4493 19.7532C11.8 19.4026 12.1312 19.2273 12.4429 19.2273C12.6377 19.2273 12.8909 19.3052 13.2026 19.461C13.5143 19.5779 13.6701 19.6753 13.6701 19.7532V26.5032C13.6701 26.8421 13.9449 27.1169 14.2838 27.1169C14.6227 27.1169 14.9075 26.8425 14.9318 26.5044C14.9387 26.4075 14.9468 26.3 14.9558 26.1818C14.9948 25.6364 15.0727 25.0714 15.1896 24.487C15.3065 23.9026 15.4818 23.3766 15.7156 22.9091C15.9883 22.4416 16.3584 22.2078 16.826 22.2078C17.3325 22.2078 17.7026 22.3831 17.9364 22.7338C18.1701 23.0455 18.3065 23.4351 18.3455 23.9026C18.4234 24.3312 18.4429 24.7597 18.4039 25.1883C18.4039 25.6169 18.4039 25.948 18.4039 26.1818C18.4039 27.3117 18.3455 28.1688 18.2286 28.7532C18.1117 29.2987 17.9558 29.6688 17.761 29.8636C17.5662 30.0584 17.3325 30.1364 17.0597 30.0974C16.826 30.0584 16.5532 30.0195 16.2416 29.9805C15.9299 29.9026 15.6182 29.9026 15.3065 29.9805C14.9948 30.0195 14.7026 30.2338 14.4299 30.6234C14.393 30.6787 14.3735 30.7516 14.3716 30.8419C14.3663 31.0892 14.487 31.3184 14.5911 31.5427C14.6543 31.6786 14.7174 31.8202 14.7805 31.9675C14.9364 32.2403 15.0727 32.513 15.1896 32.7857C15.3275 33.0616 15.615 33.3117 15.9234 33.3117H18.4039C18.7935 33.3117 19.0468 33.526 19.1636 33.9545C19.3195 34.3442 19.3974 34.6948 19.3974 35.0065C19.3974 35.1623 19.3779 35.3766 19.339 35.6493C19.3 35.8831 19.1442 36 18.8714 36H8.52727C8.41039 36 8.23506 35.9416 8.0013 35.8247C7.80649 35.7078 7.59221 35.5714 7.35844 35.4156C7.27932 35.3523 7.2002 35.289 7.12108 35.2257C6.89042 35.0412 6.68718 34.8224 6.61198 34.5368C6.59214 34.4614 6.57443 34.3849 6.55926 34.314C6.5147 34.106 6.50042 33.8931 6.50125 33.6803L6.54026 23.6688C6.54026 23.3571 6.71558 23.2013 7.06623 23.2013C7.45584 23.1623 7.70909 23.1429 7.82597 23.1429ZM20.3325 29.2208C20.3325 28.5584 20.3325 27.9545 20.3325 27.4091C20.3325 26.8636 20.3519 26.3377 20.3909 25.8312C20.4299 25.2857 20.4883 24.7403 20.5662 24.1948C20.6442 23.6104 20.7416 22.948 20.8584 22.2078C20.8965 22.0555 20.9532 21.9404 21.0285 21.8625C21.1816 21.7041 21.4348 21.7175 21.6542 21.6971C21.7642 21.6869 21.869 21.6818 21.9688 21.6818C22.4753 21.6818 23.0597 21.7013 23.7221 21.7403C24.4234 21.7792 25.1052 21.8377 25.7675 21.9156C26.4299 21.9545 27.0338 22.013 27.5792 22.0909C28.2614 22.1396 28.868 21.71 29.2798 21.1639C29.2974 21.1406 29.3149 21.1185 29.3325 21.0974C29.5273 20.8247 29.8974 20.6883 30.4429 20.6883C30.5987 20.6883 30.8325 20.7078 31.1441 20.7468C31.4948 20.7468 31.6701 20.9026 31.6701 21.2143V32.5519C31.6701 33.0974 31.4948 33.5455 31.1441 33.8961C30.7935 34.2078 30.3649 34.461 29.8584 34.6558C29.3909 34.8117 28.8844 34.9286 28.339 35.0065C27.8325 35.0455 27.4039 35.0649 27.0532 35.0649C25.8844 35.0649 24.8714 34.987 24.0143 34.8312C23.1961 34.6753 22.5143 34.3831 21.9688 33.9545C21.4234 33.487 21.0143 32.8831 20.7416 32.1429C20.4688 31.3636 20.3325 30.3896 20.3325 29.2208ZM26.2643 31.5584C27.636 31.5584 28.748 30.4464 28.748 29.0747V27.6721C28.748 26.3003 27.636 25.1883 26.2643 25.1883C24.8925 25.1883 23.7805 26.3003 23.7805 27.6721V29.0747C23.7805 30.4464 24.8925 31.5584 26.2643 31.5584ZM13.4093 17.964C12.9294 17.3264 11.9861 17.3511 11.4493 17.9416C11.0597 18.3312 10.6312 18.7013 10.1636 19.0519C9.73507 19.4026 9.26753 19.6948 8.76104 19.9286C8.25454 20.1623 7.76753 20.2792 7.3 20.2792C7.2519 20.2792 7.20008 20.2774 7.14455 20.2737C6.85778 20.2545 6.57756 20.1733 6.32403 20.0379C6.25974 20.0036 6.19545 19.9671 6.13117 19.9286C5.93636 19.7727 5.76104 19.5974 5.6052 19.4026C5.48831 19.2078 5.46883 18.9935 5.54675 18.7597C5.7026 18.1364 6.07273 17.6493 6.65714 17.2987C7.28052 16.9091 7.9039 16.5 8.52727 16.0714C9.18961 15.6039 9.77402 15 10.2805 14.2597C10.787 13.5195 11.0403 12.4675 11.0403 11.1039C11.0403 10.987 11.0208 10.7143 10.9818 10.2857C10.9818 9.77985 10.6138 9.35515 10.1249 9.22531C9.08864 8.95011 8.18596 8.50487 7.41688 7.88961C6.48182 7.11039 6.01429 5.96104 6.01429 4.44156C6.01429 3.77922 6.05325 3.29221 6.13117 2.98052C6.20909 2.62987 6.5987 2.45454 7.3 2.45454C8.0013 2.45454 8.41039 2.62987 8.52727 2.98052C8.64416 3.29221 8.72208 3.66234 8.76104 4.09091C8.83896 4.48052 9.01428 4.85065 9.28701 5.2013C10.0263 6.04623 11.2156 4.75869 11.2156 3.63597V0.525974C11.2156 0.253248 11.4493 0.0974036 11.9169 0.0584408C12.3844 0.0194803 12.6766 0 12.7935 0C12.9413 0 13.0723 0.0056072 13.1865 0.0168216C13.4769 0.0453548 13.7639 0.186792 13.8516 0.465164C13.8946 0.601665 13.9315 0.77778 13.9623 0.993508C14.0013 1.18831 14.0403 1.51948 14.0792 1.98702C14.1182 2.45455 14.1571 2.96104 14.1961 3.50649C14.274 4.01299 14.3325 4.5 14.3714 4.96753C14.4204 5.55471 14.827 6.06068 15.3621 6.30722C16.1035 6.6488 16.8058 7.1373 17.4688 7.77273C18.4039 8.62987 18.8714 9.66234 18.8714 10.8701C18.8714 11.3377 18.7935 11.7078 18.6377 11.9805C18.4818 12.2532 18.1701 12.3896 17.7026 12.3896C17.274 12.3896 16.9234 12.2922 16.6506 12.0974C16.3779 11.8636 16.1247 11.5909 15.8909 11.2792C15.6571 10.9286 15.4234 10.5974 15.1896 10.2857C15.1613 10.2348 15.1318 10.1851 15.1011 10.1367C14.8813 9.7904 14.4029 9.99369 14.3714 10.4026C14.3714 10.8701 14.3714 11.1818 14.3714 11.3377C14.3714 12.3506 14.6052 13.3052 15.0727 14.2013C15.5403 15.0584 16.0468 15.8377 16.5922 16.539C17.1766 17.2403 17.7026 17.8442 18.1701 18.3506C18.6377 18.8571 18.8714 19.2273 18.8714 19.461C18.8714 20.3571 18.4818 20.8052 17.7026 20.8052C17.1182 20.8052 16.5727 20.6688 16.0662 20.3961C15.5987 20.0844 15.1312 19.7338 14.6636 19.3442C14.2351 18.9156 13.826 18.4675 13.4364 18C13.4273 17.9879 13.4183 17.9759 13.4093 17.964ZM26.2351 18.7013C26.2351 18.6234 26.2351 18.5455 26.2351 18.4675C26.2351 18.3413 26.34 18.2358 26.4202 18.1384L27.8358 16.4195C28.4256 15.7033 28.748 14.8044 28.748 13.8766V9.87663C28.748 9.29221 28.5143 8.9026 28.0468 8.70779C27.6182 8.47402 27.1896 8.35714 26.761 8.35714C26.6863 8.35714 26.5219 8.37507 26.2679 8.41091C26.2461 8.414 26.2086 8.41558 26.1865 8.41558C25.9418 8.41558 25.7541 8.60452 25.7307 8.84816C25.6799 9.37787 25.5948 10.0908 25.4753 10.987C25.3195 12.1169 25.0467 13.2662 24.6571 14.4351C24.2675 15.6039 23.761 16.6364 23.1377 17.5325C22.5532 18.3896 21.813 18.8182 20.9169 18.8182C20.4493 18.8182 20.0597 18.7403 19.7481 18.5844C19.4364 18.3896 19.2805 18.039 19.2805 17.5325C19.2805 17.4662 19.2805 17.3717 19.2805 17.249C19.2805 17.2043 19.2898 17.1355 19.2979 17.0916C19.3377 16.8776 19.444 16.6977 19.6186 16.5677C20.1869 16.1445 20.6391 15.7648 20.9753 15.4286C21.3649 15 21.6571 14.5714 21.8519 14.1429C22.0857 13.6753 22.2221 13.1688 22.261 12.6234C22.339 12.0779 22.3779 11.4156 22.3779 10.6364C22.3779 10.4416 22.3584 10.0714 22.3195 9.52598C22.3195 8.88297 21.8558 8.32897 21.265 8.07529C21.0989 8.00397 20.9244 7.9226 20.7416 7.83117C20.1571 7.51948 19.8649 7.05195 19.8649 6.42857C19.8649 6.07792 19.9039 5.57143 19.9818 4.90909C20.0597 4.20779 20.1961 3.54545 20.3909 2.92208C20.5857 2.25974 20.8584 1.69481 21.2091 1.22727C21.5597 0.72078 22.0273 0.467533 22.6117 0.467533C23.0792 0.467533 23.3909 0.642858 23.5468 0.993508C23.7416 1.3052 23.8584 1.67533 23.8974 2.1039C23.9364 2.53247 23.9364 2.98052 23.8974 3.44805C23.8469 4.0035 24.216 4.52158 24.7672 4.60681C24.7886 4.61013 24.8104 4.61349 24.8325 4.61688C25.3779 4.69481 25.9234 4.79221 26.4688 4.90909C27.0532 5.02597 27.5987 5.14286 28.1052 5.25974C28.6506 5.33766 29.0208 5.3961 29.2156 5.43506C29.6052 5.51299 30.0338 5.76623 30.5013 6.1948C30.9688 6.58441 31.2026 6.99351 31.2026 7.42208V16.3052C31.2026 16.7727 31.0857 17.2208 30.8519 17.6493C30.6182 18.039 30.326 18.4091 29.9753 18.7597C29.6247 19.0714 29.2156 19.3247 28.748 19.5195C28.3195 19.7143 27.8909 19.8117 27.4623 19.8117C27.0727 19.8117 26.761 19.7338 26.5273 19.5779C26.3325 19.4221 26.2351 19.1299 26.2351 18.7013Z" fill="white"/>
</svg>
